<?xml version="1.0" standalone="no"?>
<!DOCTYPE svg PUBLIC "-//W3C//DTD SVG 20010904//EN"
 "http://www.w3.org/TR/2001/REC-SVG-20010904/DTD/svg10.dtd">
<svg version="1.0" xmlns="http://www.w3.org/2000/svg"
 width="104.000000pt" height="105.000000pt" viewBox="0 0 104.000000 105.000000"
 preserveAspectRatio="xMidYMid meet">

<g transform="translate(0.000000,105.000000) scale(0.100000,-0.100000)"
fill="#000000" stroke="none">
<path d="M0 525 l0 -525 520 0 520 0 0 525 0 525 -520 0 -520 0 0 -525z m695
25 l0 -205 -53 -3 c-41 -2 -54 0 -59 13 -7 20 12 35 45 35 17 0 22 6 22 25 l0
26 -127 -3 -128 -3 3 -34 c3 -41 -15 -57 -40 -34 -16 14 -18 36 -18 180 0 161
0 164 25 189 24 24 26 24 177 22 l153 -3 0 -205z m-145 -205 c0 -59 -4 -63
-38 -39 -20 14 -24 14 -44 0 -34 -24 -38 -20 -38 39 l0 55 60 0 60 0 0 -55z"/>
<path d="M397 703 c-4 -3 -7 -53 -7 -110 l0 -103 130 0 130 0 0 110 0 110
-123 0 c-68 0 -127 -3 -130 -7z"/>
</g>
</svg>
