<?xml version="1.0" standalone="no"?>
<!DOCTYPE svg PUBLIC "-//W3C//DTD SVG 20010904//EN"
 "http://www.w3.org/TR/2001/REC-SVG-20010904/DTD/svg10.dtd">
<svg version="1.0" xmlns="http://www.w3.org/2000/svg"
 width="114.000000pt" height="103.000000pt" viewBox="0 0 114.000000 103.000000"
 preserveAspectRatio="xMidYMid meet">

<g transform="translate(0.000000,103.000000) scale(0.100000,-0.100000)"
fill="#000000" stroke="none">
<path d="M0 515 l0 -515 570 0 570 0 0 515 0 515 -570 0 -570 0 0 -515z m936
463 c39 -21 82 -71 92 -106 4 -15 7 -178 7 -362 0 -298 -2 -339 -17 -366 -21
-39 -71 -82 -106 -92 -35 -9 -669 -9 -704 0 -35 10 -85 53 -106 92 -15 27 -17
71 -20 331 -2 165 -1 323 3 352 10 81 63 145 136 163 19 5 180 8 359 7 286 -2
329 -4 356 -19z"/>
</g>
</svg>
